<svg width="229" height="54" viewBox="0 0 229 54" fill="none" xmlns="http://www.w3.org/2000/svg">
<path d="M0.3125 2.09375H7.46875L31.5938 24.75L56.375 2.09375H63.2812V52H42.75V35.8125L30 49.8125L17.5938 36.1875V52H0.3125V2.09375ZM105.812 21.0625C105.812 17.5417 104.125 15.7812 100.75 15.7812C99.2917 15.7812 97.6667 16.6979 95.875 18.5312C93.1875 21.3021 91.3125 24.6042 90.25 28.4375C89.9167 29.6458 89.75 30.7604 89.75 31.7812C89.75 35.2396 91.5 36.9688 95 36.9688C96.3958 36.9896 97.9896 36.0625 99.7812 34.1875C102.385 31.4375 104.229 28.1042 105.312 24.1875C105.646 22.9792 105.812 21.9375 105.812 21.0625ZM97.2812 53.2188C89.8854 53.2188 83.4688 50.8229 78.0312 46.0312C76.3021 44.5104 74.8021 42.7708 73.5312 40.8125C70.8229 36.6667 69.4688 32.0312 69.4688 26.9062C69.4688 21.7604 70.7188 17.2083 73.2188 13.25C75.7188 9.29167 79.0729 6.20833 83.2812 4C87.4896 1.79167 91.8438 0.6875 96.3438 0.6875C100.865 0.6875 104.844 1.29167 108.281 2.5C111.719 3.70833 114.708 5.44792 117.25 7.71875C119.812 9.96875 121.823 12.7292 123.281 16C124.74 19.2708 125.469 22.9688 125.469 27.0938C125.469 32.2188 124.167 36.7812 121.562 40.7812C118.958 44.7604 115.49 47.8333 111.156 50C106.823 52.1458 102.198 53.2188 97.2812 53.2188ZM171.031 18.3438C169.677 17.8229 168.229 17.5625 166.688 17.5625C163.521 17.5625 160.76 18.7188 158.406 21.0312C156.073 23.3229 154.906 26.0729 154.906 29.2812C154.906 31.4271 155.323 33.1042 156.156 34.3125C156.99 35.5208 158.125 36.125 159.562 36.125C161 36.125 162.583 35.7604 164.312 35.0312C166.062 34.2812 168.625 32.6667 172 30.1875V50.5312C167.562 52.3229 162.844 53.2188 157.844 53.2188C152.865 53.2188 148.271 52.2604 144.062 50.3438C137.375 47.2812 132.969 42.4896 130.844 35.9688C130.135 33.7396 129.771 31.2812 129.75 28.5938C129.75 25.9062 130.083 23.3333 130.75 20.875C131.417 18.4167 132.385 16.1458 133.656 14.0625C136.198 9.875 139.76 6.59375 144.344 4.21875C148.948 1.84375 154.219 0.666667 160.156 0.6875C164.677 0.6875 168.302 1.19792 171.031 2.21875V18.3438ZM209.188 2.09375H228.656V52H209.188V33.5625L198.812 34.4688V52H179.375V2.09375H198.812V20.125L209.188 19.2812V2.09375Z" fill="white"/>
</svg>
